<?xml version="1.0" encoding="UTF-8"?>
<!DOCTYPE svg PUBLIC "-//W3C//DTD SVG 1.1//EN" "http://www.w3.org/Graphics/SVG/1.1/DTD/svg11.dtd">
<svg xmlns="http://www.w3.org/2000/svg" version="1.1" width="1024px" height="1024px" style="shape-rendering:geometricPrecision; text-rendering:geometricPrecision; image-rendering:optimizeQuality; fill-rule:evenodd; clip-rule:evenodd" xmlns:xlink="http://www.w3.org/1999/xlink">
<g><path style="opacity:0.999" fill="#0b0806" d="M 733.5,175.5 C 732.957,175.56 732.624,175.893 732.5,176.5C 735.262,185.81 736.929,195.31 737.5,205C 736.745,216.525 735.412,227.692 733.5,238.5C 735.687,240.85 738.187,242.85 741,244.5C 741.399,244.272 741.565,243.938 741.5,243.5C 754.364,251.199 764.031,261.865 770.5,275.5C 771.5,278.167 772.5,278.167 773.5,275.5C 783.192,250.116 795.025,225.783 809,202.5C 816.828,190.972 826.328,181.139 837.5,173C 855.478,166.994 868.478,172.494 876.5,189.5C 887.922,182.724 899.255,182.891 910.5,190C 914.573,195.578 917.073,201.078 918,206.5C 926.133,206.147 932.633,209.147 937.5,215.5C 940.804,221.114 943.304,227.114 945,233.5C 945.667,240.5 945.667,247.5 945,254.5C 937.666,285.335 927.833,315.335 915.5,344.5C 915.624,345.107 915.957,345.44 916.5,345.5C 915.449,349.269 914.116,352.935 912.5,356.5C 910.665,357.122 909.498,358.456 909,360.5C 906.5,366.167 904,371.833 901.5,377.5C 901.624,378.107 901.957,378.44 902.5,378.5C 902.5,378.833 902.5,379.167 902.5,379.5C 900.314,380.823 898.814,382.823 898,385.5C 892.861,397.434 888.028,409.434 883.5,421.5C 883.5,421.833 883.5,422.167 883.5,422.5C 880.973,424.51 879.139,427.177 878,430.5C 873.38,441.741 868.213,452.741 862.5,463.5C 862.624,464.107 862.957,464.44 863.5,464.5C 860.771,470.959 857.771,477.292 854.5,483.5C 853.504,483.414 852.671,483.748 852,484.5C 846.528,495.108 841.361,505.775 836.5,516.5C 818.579,548.692 798.912,579.692 777.5,609.5C 777.297,607.61 777.963,606.11 779.5,605C 778.44,603.702 777.274,602.535 776,601.5C 775.055,601.905 774.388,602.572 774,603.5C 772.968,601.973 771.801,600.64 770.5,599.5C 783.312,579.89 796.146,560.223 809,540.5C 847.111,475.612 879.278,407.946 905.5,337.5C 915.062,315.821 923.062,293.487 929.5,270.5C 930.404,269.791 930.737,268.791 930.5,267.5C 934.407,257.531 935.907,247.198 935,236.5C 934.768,235.263 934.268,234.263 933.5,233.5C 932.485,224.981 927.818,220.481 919.5,220C 916.675,222.124 914.175,224.624 912,227.5C 908.784,233.264 906.117,239.264 904,245.5C 901.388,248.576 898.221,249.243 894.5,247.5C 892.274,243.659 892.108,239.659 894,235.5C 896.52,229.135 899.02,222.802 901.5,216.5C 907.451,201.261 902.118,195.094 885.5,198C 881.759,199.738 878.592,202.238 876,205.5C 871.22,212.726 867.22,220.392 864,228.5C 861.804,231.125 858.97,232.125 855.5,231.5C 855.167,230.5 854.5,229.833 853.5,229.5C 853.338,227.473 853.505,225.473 854,223.5C 857.549,217.07 860.549,210.404 863,203.5C 865.339,189.514 859.506,182.681 845.5,183C 842.894,183.792 840.894,185.292 839.5,187.5C 835.616,189.21 832.449,191.876 830,195.5C 815.98,214.856 803.98,235.523 794,257.5C 789.058,268.384 784.391,279.384 780,290.5C 778.595,294.072 778.262,297.739 779,301.5C 791.09,333.373 793.757,366.04 787,399.5C 783.011,418.791 773.345,434.457 758,446.5C 756.292,485.406 741.458,518.24 713.5,545C 691.478,563.011 666.145,572.344 637.5,573C 626.167,595 609.5,611.667 587.5,623C 555.368,638.047 522.201,650.547 488,660.5C 458.087,651.196 428.587,640.696 399.5,629C 377.795,619.403 359.295,605.57 344,587.5C 341.268,583.759 338.934,579.759 337,575.5C 335.211,573.771 333.044,573.104 330.5,573.5C 326.02,572.479 321.353,571.813 316.5,571.5C 295.799,568.649 277.799,560.149 262.5,546C 261.167,545.333 259.833,545.333 258.5,546C 234.429,565.067 214.262,587.567 198,613.5C 192.473,623.229 186.973,632.896 181.5,642.5C 180.781,638.835 179.948,635.168 179,631.5C 177.989,630.663 176.822,630.33 175.5,630.5C 192.877,593.616 217.544,562.45 249.5,537C 233.694,520.157 223.527,500.324 219,477.5C 217.079,467.804 215.912,458.137 215.5,448.5C 201.854,438.242 192.354,424.908 187,408.5C 184.366,400.364 182.699,392.03 182,383.5C 176.971,339.26 186.971,298.926 212,262.5C 219.758,253.692 228.092,246.359 237,240.5C 236.779,233.827 236.113,227.16 235,220.5C 231.55,192.386 238.216,167.053 255,144.5C 273.861,124.828 297.028,115.161 324.5,115.5C 339.278,115.826 353.778,117.826 368,121.5C 389.311,92.8383 417.478,82.3383 452.5,90C 464.206,92.5639 475.039,97.0639 485,103.5C 507.61,87.6481 532.443,82.8147 559.5,89C 577.594,94.5535 591.927,105.22 602.5,121C 612.414,119.489 622.414,118.156 632.5,117C 655.583,114.439 677.583,118.106 698.5,128C 715.657,139.675 727.323,155.508 733.5,175.5 Z"/></g>
<g><path style="opacity:1" fill="#fec903" d="M 853.5,229.5 C 854.5,229.833 855.167,230.5 855.5,231.5C 855.97,232.693 856.97,233.36 858.5,233.5C 860.841,232.818 863.174,232.151 865.5,231.5C 865.343,230.127 865.51,228.793 866,227.5C 869.311,218.021 874.477,209.688 881.5,202.5C 887.579,197.567 893.913,197.233 900.5,201.5C 902.552,206.41 902.885,211.41 901.5,216.5C 899.02,222.802 896.52,229.135 894,235.5C 892.108,239.659 892.274,243.659 894.5,247.5C 898.221,249.243 901.388,248.576 904,245.5C 906.117,239.264 908.784,233.264 912,227.5C 914.175,224.624 916.675,222.124 919.5,220C 927.818,220.481 932.485,224.981 933.5,233.5C 933.741,244.713 932.407,255.379 929.5,265.5C 929.543,266.416 929.876,267.083 930.5,267.5C 930.737,268.791 930.404,269.791 929.5,270.5C 928.061,271.184 927.061,272.851 926.5,275.5C 923.517,283.69 921.017,292.023 919,300.5C 914.812,306.881 911.979,313.881 910.5,321.5C 909.833,320.833 909.167,320.167 908.5,319.5C 906.463,321.872 906.13,324.539 907.5,327.5C 906.407,330.769 905.741,334.103 905.5,337.5C 879.278,407.946 847.111,475.612 809,540.5C 796.146,560.223 783.312,579.89 770.5,599.5C 754.663,620.518 737.829,640.852 720,660.5C 719.042,662.199 718.542,664.033 718.5,666C 719.031,668.817 719.364,671.65 719.5,674.5C 726.866,735.386 732.699,796.386 737,857.5C 737.153,878.354 737.986,899.02 739.5,919.5C 739.5,920.5 739.5,921.5 739.5,922.5C 572.167,922.5 404.833,922.5 237.5,922.5C 237.5,909.833 237.5,897.167 237.5,884.5C 238.117,884.611 238.617,884.944 239,885.5C 239.333,877.167 239.667,868.833 240,860.5C 242.476,840.167 245.142,819.834 248,799.5C 248.923,800.759 249.757,802.092 250.5,803.5C 250.833,802.833 251.167,802.167 251.5,801.5C 249.687,795.658 249.02,789.658 249.5,783.5C 251.075,780.471 252.241,777.138 253,773.5C 256.547,752.922 260.047,732.255 263.5,711.5C 265.492,711.328 267.158,711.995 268.5,713.5C 268.833,712.833 269.167,712.167 269.5,711.5C 269.858,707.133 269.191,702.8 267.5,698.5C 267.418,694.489 268.418,690.823 270.5,687.5C 271.493,682.88 271.827,678.214 271.5,673.5C 273.049,664.302 275.383,655.302 278.5,646.5C 278.425,642.926 276.592,641.259 273,641.5C 270.194,641.439 268.527,642.772 268,645.5C 261.373,670.161 255.206,694.828 249.5,719.5C 246.751,728.596 244.418,737.929 242.5,747.5C 240.737,761.279 238.403,774.946 235.5,788.5C 235.507,790.369 235.84,792.036 236.5,793.5C 236.802,796.059 236.468,798.393 235.5,800.5C 235.587,797.402 235.087,797.068 234,799.5C 231.795,824.714 228.295,848.714 223.5,871.5C 225.129,876.874 225.296,882.208 224,887.5C 223.5,898.828 223.333,910.162 223.5,921.5C 197.188,923.491 170.521,924.158 143.5,923.5C 141.96,921.162 141.294,918.495 141.5,915.5C 140.632,905.324 138.798,895.324 136,885.5C 133.801,845.694 136.468,806.361 144,767.5C 146.794,755.529 149.461,743.529 152,731.5C 156.747,722.195 159.247,712.195 159.5,701.5C 165.437,681.296 172.77,661.63 181.5,642.5C 186.973,632.896 192.473,623.229 198,613.5C 214.262,587.567 234.429,565.067 258.5,546C 259.833,545.333 261.167,545.333 262.5,546C 277.799,560.149 295.799,568.649 316.5,571.5C 317.263,572.268 318.263,572.768 319.5,573C 323.152,573.499 326.818,573.665 330.5,573.5C 333.044,573.104 335.211,573.771 337,575.5C 338.934,579.759 341.268,583.759 344,587.5C 359.295,605.57 377.795,619.403 399.5,629C 428.587,640.696 458.087,651.196 488,660.5C 522.201,650.547 555.368,638.047 587.5,623C 609.5,611.667 626.167,595 637.5,573C 666.145,572.344 691.478,563.011 713.5,545C 741.458,518.24 756.292,485.406 758,446.5C 773.345,434.457 783.011,418.791 787,399.5C 793.757,366.04 791.09,333.373 779,301.5C 778.262,297.739 778.595,294.072 780,290.5C 784.391,279.384 789.058,268.384 794,257.5C 803.98,235.523 815.98,214.856 830,195.5C 832.449,191.876 835.616,189.21 839.5,187.5C 856.614,181.797 863.781,187.797 861,205.5C 857.596,212.066 854.429,218.733 851.5,225.5C 851.585,227.333 852.252,228.666 853.5,229.5 Z"/></g>
<g><path style="opacity:0.231" fill="#352f25" d="M 733.5,175.5 C 739.35,195.504 740.017,215.837 735.5,236.5C 736.777,239.444 738.777,241.777 741.5,243.5C 741.565,243.938 741.399,244.272 741,244.5C 738.187,242.85 735.687,240.85 733.5,238.5C 735.412,227.692 736.745,216.525 737.5,205C 736.929,195.31 735.262,185.81 732.5,176.5C 732.624,175.893 732.957,175.56 733.5,175.5 Z"/></g>
<g><path style="opacity:1" fill="#ecbc26" d="M 715.5,165.5 C 721.661,175.152 725.161,185.818 726,197.5C 726.962,209.106 726.129,220.439 723.5,231.5C 724.466,222.179 724.966,212.846 725,203.5C 723.005,193.861 721.005,184.195 719,174.5C 718.333,173.167 717.667,171.833 717,170.5C 716.667,170.833 716.333,171.167 716,171.5C 715.505,169.527 715.338,167.527 715.5,165.5 Z"/></g>
<g><path style="opacity:1" fill="#efd723" d="M 853.5,229.5 C 852.252,228.666 851.585,227.333 851.5,225.5C 854.429,218.733 857.596,212.066 861,205.5C 863.781,187.797 856.614,181.797 839.5,187.5C 840.894,185.292 842.894,183.792 845.5,183C 859.506,182.681 865.339,189.514 863,203.5C 860.549,210.404 857.549,217.07 854,223.5C 853.505,225.473 853.338,227.473 853.5,229.5 Z"/></g>
<g><path style="opacity:1" fill="#f1da29" d="M 901.5,216.5 C 902.885,211.41 902.552,206.41 900.5,201.5C 893.913,197.233 887.579,197.567 881.5,202.5C 874.477,209.688 869.311,218.021 866,227.5C 865.51,228.793 865.343,230.127 865.5,231.5C 863.174,232.151 860.841,232.818 858.5,233.5C 856.97,233.36 855.97,232.693 855.5,231.5C 858.97,232.125 861.804,231.125 864,228.5C 867.22,220.392 871.22,212.726 876,205.5C 878.592,202.238 881.759,199.738 885.5,198C 902.118,195.094 907.451,201.261 901.5,216.5 Z"/></g>
<g><path style="opacity:1" fill="#f8ae03" d="M 715.5,165.5 C 715.338,167.527 715.505,169.527 716,171.5C 716.333,171.167 716.667,170.833 717,170.5C 717.667,171.833 718.333,173.167 719,174.5C 721.005,184.195 723.005,193.861 725,203.5C 724.966,212.846 724.466,222.179 723.5,231.5C 722.451,236.131 721.951,240.798 722,245.5C 738.534,253.366 751.201,265.366 760,281.5C 779.64,319.596 784.974,359.596 776,401.5C 771.108,417.955 761.774,431.288 748,441.5C 746.87,480.238 732.37,512.738 704.5,539C 682.26,555.469 657.26,563.635 629.5,563.5C 621.747,581.428 609.747,595.928 593.5,607C 582.254,612.859 570.921,618.525 559.5,624C 535.99,633.003 512.323,641.503 488.5,649.5C 467.485,642.439 446.485,635.273 425.5,628C 411.381,622.438 397.715,616.104 384.5,609C 365.775,597.446 351.441,581.946 341.5,562.5C 336.349,561.673 331.016,561.173 325.5,561C 316.476,559.147 307.476,557.314 298.5,555.5C 257.027,537.483 233.527,505.816 228,460.5C 227.667,454.167 227.333,447.833 227,441.5C 208.308,428.794 197.808,411.128 195.5,388.5C 195.333,372.497 195.5,356.497 196,340.5C 197.537,330.738 199.371,321.071 201.5,311.5C 209.034,282.761 225.534,260.761 251,245.5C 249.167,236.315 247.834,226.982 247,217.5C 243.823,189.362 251.99,165.195 271.5,145C 282.258,136.123 294.591,130.79 308.5,129C 320.5,128.333 332.5,128.333 344.5,129C 354.468,130.126 364.134,132.126 373.5,135C 377.652,131.551 380.986,127.384 383.5,122.5C 406.373,97.9429 433.373,92.4429 464.5,106C 471.858,109.342 478.858,113.176 485.5,117.5C 489.553,115.621 493.22,113.121 496.5,110C 517.039,97.6982 538.706,95.0315 561.5,102C 577.006,109.172 589.006,120.172 597.5,135C 599.5,135.667 601.5,135.667 603.5,135C 612.758,131.082 622.425,129.082 632.5,129C 651.508,126.572 669.841,128.905 687.5,136C 700.126,142.791 709.459,152.624 715.5,165.5 Z"/></g>
<g><path style="opacity:1" fill="#090403" d="M 454.5,199.5 C 460.992,199.006 467.325,198.339 473.5,197.5C 482.167,197.5 490.833,197.5 499.5,197.5C 527.306,199.267 554.14,205.6 580,216.5C 588.118,210.053 595.951,203.219 603.5,196C 615.008,187.245 627.674,180.578 641.5,176C 671.372,174.697 686.705,189.197 687.5,219.5C 686.454,233.472 682.287,246.472 675,258.5C 670.245,265.233 666.412,272.4 663.5,280C 668.884,292.989 673.551,306.156 677.5,319.5C 685.511,359.82 682.178,399.154 667.5,437.5C 641.282,493.635 597.948,528.969 537.5,543.5C 499.358,551.984 461.358,551.318 423.5,541.5C 367.474,523.65 327.64,487.65 304,433.5C 285.303,380.973 287.803,329.473 311.5,279C 304.647,267.468 298.147,255.635 292,243.5C 286.59,230.491 285.257,217.158 288,203.5C 290.416,196.34 293.583,189.674 297.5,183.5C 301.81,183.511 305.143,181.677 307.5,178C 313.135,175.074 319.135,174.074 325.5,175C 335.416,176.297 344.749,179.297 353.5,184C 366.98,192.141 379.314,201.807 390.5,213C 391.667,213.167 392.833,213.333 394,213.5C 413.594,206.393 433.76,201.727 454.5,199.5 Z"/></g>
<g><path style="opacity:1" fill="#fec905" d="M 442.5,211.5 C 441.537,212.363 441.537,213.03 442.5,213.5C 455.971,210.386 469.637,209.052 483.5,209.5C 496.842,210.168 510.175,210.835 523.5,211.5C 533.625,213.031 543.625,215.197 553.5,218C 563.29,221.979 573.123,225.813 583,229.5C 583.833,229.333 584.667,229.167 585.5,229C 598.783,213.043 614.45,200.043 632.5,190C 651.562,180.299 666.062,184.799 676,203.5C 678.798,216.596 677.465,229.263 672,241.5C 665.795,253.691 658.795,265.357 651,276.5C 650.333,278.167 650.333,279.833 651,281.5C 652.454,284.071 653.62,286.738 654.5,289.5C 653.957,289.56 653.624,289.893 653.5,290.5C 666.627,320.028 671.96,351.028 669.5,383.5C 666.783,416.588 654.95,445.921 634,471.5C 613.019,497.087 586.853,515.42 555.5,526.5C 555.265,525.903 554.765,525.57 554,525.5C 543.785,528.918 533.452,531.251 523,532.5C 522.167,531 521,529.833 519.5,529C 519.833,528.667 520.167,528.333 520.5,528C 519.065,528.311 517.732,528.145 516.5,527.5C 515.698,530.308 515.698,532.808 516.5,535C 483.95,538.961 451.95,536.294 420.5,527C 419.663,525.989 419.33,524.822 419.5,523.5C 414.608,523.774 409.941,523.107 405.5,521.5C 382.864,512.053 363.031,498.386 346,480.5C 304.644,431.735 292.644,376.401 310,314.5C 313.891,302.226 318.724,290.393 324.5,279C 316.145,267.142 308.645,254.642 302,241.5C 294.224,226.764 293.557,211.764 300,196.5C 305.356,188.822 312.69,185.155 322,185.5C 332.29,185.78 341.79,188.613 350.5,194C 364.003,202.828 376.337,213.161 387.5,225C 388.729,225.781 390.062,226.281 391.5,226.5C 407.957,219.681 424.957,214.681 442.5,211.5 Z"/></g>
<g><path style="opacity:1" fill="#f3da2a" d="M 523.5,211.5 C 510.175,210.835 496.842,210.168 483.5,209.5C 469.637,209.052 455.971,210.386 442.5,213.5C 441.537,213.03 441.537,212.363 442.5,211.5C 469.648,206.28 496.648,206.28 523.5,211.5 Z"/></g>
<g><path style="opacity:1" fill="#b29145" d="M 462.5,197.5 C 466.167,197.5 469.833,197.5 473.5,197.5C 467.325,198.339 460.992,199.006 454.5,199.5C 456.838,197.96 459.505,197.294 462.5,197.5 Z"/></g>
<g><path style="opacity:1" fill="#fccd09" d="M 499.5,197.5 C 490.833,197.5 482.167,197.5 473.5,197.5C 469.833,197.5 466.167,197.5 462.5,197.5C 474.626,195.623 486.959,195.123 499.5,196C 502.097,196.779 502.097,197.279 499.5,197.5 Z"/></g>
<g><path style="opacity:1" fill="#e8d528" d="M 933.5,233.5 C 934.268,234.263 934.768,235.263 935,236.5C 935.907,247.198 934.407,257.531 930.5,267.5C 929.876,267.083 929.543,266.416 929.5,265.5C 932.407,255.379 933.741,244.713 933.5,233.5 Z"/></g>
<g><path style="opacity:0.008" fill="#fefffe" d="M 770.5,275.5 C 771.5,275.5 772.5,275.5 773.5,275.5C 772.5,278.167 771.5,278.167 770.5,275.5 Z"/></g>
<g><path style="opacity:0.243" fill="#413c2e" d="M 937.5,215.5 C 942.49,221.153 945.657,227.819 947,235.5C 947.667,240.833 947.667,246.167 947,251.5C 939.91,283.936 929.743,315.269 916.5,345.5C 915.957,345.44 915.624,345.107 915.5,344.5C 927.833,315.335 937.666,285.335 945,254.5C 945.667,247.5 945.667,240.5 945,233.5C 943.304,227.114 940.804,221.114 937.5,215.5 Z"/></g>
<g><path style="opacity:1" fill="#f0d628" d="M 929.5,270.5 C 923.062,293.487 915.062,315.821 905.5,337.5C 905.741,334.103 906.407,330.769 907.5,327.5C 906.13,324.539 906.463,321.872 908.5,319.5C 909.167,320.167 909.833,320.833 910.5,321.5C 911.979,313.881 914.812,306.881 919,300.5C 921.017,292.023 923.517,283.69 926.5,275.5C 927.061,272.851 928.061,271.184 929.5,270.5 Z"/></g>
<g><path style="opacity:1" fill="#090403" d="M 397.5,315.5 C 410.367,314.867 415.534,320.867 413,333.5C 409.02,339.385 403.52,341.551 396.5,340C 390.189,336.289 387.689,330.789 389,323.5C 391.074,319.923 393.907,317.256 397.5,315.5 Z"/></g>
<g><path style="opacity:1" fill="#e9d42c" d="M 654.5,289.5 C 668.952,319.399 673.952,350.732 669.5,383.5C 671.96,351.028 666.627,320.028 653.5,290.5C 653.624,289.893 653.957,289.56 654.5,289.5 Z"/></g>
<g><path style="opacity:1" fill="#eed525" d="M 559.5,333.5 C 558.206,331.952 557.539,329.952 557.5,327.5C 557.957,324.085 558.623,320.752 559.5,317.5C 562.598,317.587 562.932,317.087 560.5,316C 567.492,315.5 574.492,315.334 581.5,315.5C 583.653,321.972 583.987,328.639 582.5,335.5C 578.102,341.082 572.436,342.916 565.5,341C 561.783,339.792 559.783,337.292 559.5,333.5 Z"/></g>
<g><path style="opacity:1" fill="#090503" d="M 559.5,333.5 C 557.373,320.128 563.039,314.628 576.5,317C 581.152,321.536 582.652,327.036 581,333.5C 573.836,342.779 566.67,342.779 559.5,333.5 Z"/></g>
<g><path style="opacity:0.306" fill="#484435" d="M 912.5,356.5 C 909.344,363.99 906.011,371.323 902.5,378.5C 901.957,378.44 901.624,378.107 901.5,377.5C 904,371.833 906.5,366.167 909,360.5C 909.498,358.456 910.665,357.122 912.5,356.5 Z"/></g>
<g><path style="opacity:1" fill="#050303" d="M 539.5,403.5 C 531.687,416.418 520.687,425.585 506.5,431C 500.696,433.047 494.862,434.88 489,436.5C 488.333,443.833 488.333,451.167 489,458.5C 490.28,467.114 495.114,472.614 503.5,475C 512.078,477.203 519.245,475.037 525,468.5C 526.429,465.238 527.929,462.071 529.5,459C 531.112,458.28 532.612,458.446 534,459.5C 535.238,471.946 529.738,479.78 517.5,483C 511.083,483.87 504.749,483.536 498.5,482C 493.102,479.43 488.435,475.93 484.5,471.5C 470.151,486.215 454.984,487.215 439,474.5C 435.967,469.894 434.967,464.894 436,459.5C 438.267,458.065 440.267,458.398 442,460.5C 445.382,473.116 453.549,477.95 466.5,475C 474.315,472.187 478.815,466.687 480,458.5C 480.667,451.5 480.667,444.5 480,437.5C 478.786,435.951 477.286,434.785 475.5,434C 459.647,429.5 446.147,421.333 435,409.5C 434.062,407.512 433.228,405.512 432.5,403.5C 434.207,377.211 442.041,352.878 456,330.5C 459.453,325.702 463.62,321.702 468.5,318.5C 470.343,319.939 472.01,319.772 473.5,318C 484.856,315.307 495.856,316.307 506.5,321C 512.408,326.311 517.241,332.478 521,339.5C 528.179,355.035 534.179,371.035 539,387.5C 540.613,392.824 540.779,398.157 539.5,403.5 Z"/></g>
<g><path style="opacity:1" fill="#fdc904" d="M 511.5,345.5 C 512.338,345.842 512.672,346.508 512.5,347.5C 512.182,351.581 513.682,355.248 517,358.5C 520.087,366.643 522.92,374.81 525.5,383C 525.045,384.724 524.212,386.224 523,387.5C 522.667,387.167 522.333,386.833 522,386.5C 519.2,387.125 516.366,387.792 513.5,388.5C 518.627,390.026 518.627,391.026 513.5,391.5C 498.242,389.476 482.909,388.976 467.5,390C 466.584,390.278 465.918,390.778 465.5,391.5C 458.222,394.353 450.555,395.686 442.5,395.5C 442.755,391.2 443.755,387.2 445.5,383.5C 448.262,377.833 450.428,371.833 452,365.5C 452.574,363.508 453.741,362.008 455.5,361C 454.833,360.667 454.167,360.333 453.5,360C 456.331,354.979 458.998,349.812 461.5,344.5C 464.988,341.599 467.655,338.099 469.5,334C 476.696,330.106 484.362,328.773 492.5,330C 490,330.833 489.833,332 492,333.5C 494.179,331.363 496.679,331.029 499.5,332.5C 503.952,336.074 507.452,340.407 510,345.5C 510.69,346.738 511.19,346.738 511.5,345.5 Z"/></g>
<g><path style="opacity:1" fill="#f1d823" d="M 511.5,345.5 C 511.19,346.738 510.69,346.738 510,345.5C 507.452,340.407 503.952,336.074 499.5,332.5C 496.679,331.029 494.179,331.363 492,333.5C 489.833,332 490,330.833 492.5,330C 484.362,328.773 476.696,330.106 469.5,334C 467.655,338.099 464.988,341.599 461.5,344.5C 458.998,349.812 456.331,354.979 453.5,360C 454.167,360.333 454.833,360.667 455.5,361C 453.741,362.008 452.574,363.508 452,365.5C 450.428,371.833 448.262,377.833 445.5,383.5C 448.784,365.938 455.617,349.938 466,335.5C 470.689,330.219 476.522,327.553 483.5,327.5C 497.348,326.711 506.681,332.711 511.5,345.5 Z"/></g>
<g><path style="opacity:1" fill="#efc022" d="M 201.5,311.5 C 199.371,321.071 197.537,330.738 196,340.5C 195.5,356.497 195.333,372.497 195.5,388.5C 192.317,365.843 193.15,343.176 198,320.5C 198.9,317.282 200.067,314.282 201.5,311.5 Z"/></g>
<g><path style="opacity:1" fill="#f2d41b" d="M 512.5,347.5 C 520.853,362.886 526.853,379.219 530.5,396.5C 522.905,394.92 515.238,393.42 507.5,392C 493.504,391.5 479.504,391.333 465.5,391.5C 465.918,390.778 466.584,390.278 467.5,390C 482.909,388.976 498.242,389.476 513.5,391.5C 518.627,391.026 518.627,390.026 513.5,388.5C 516.366,387.792 519.2,387.125 522,386.5C 522.333,386.833 522.667,387.167 523,387.5C 524.212,386.224 525.045,384.724 525.5,383C 522.92,374.81 520.087,366.643 517,358.5C 513.682,355.248 512.182,351.581 512.5,347.5 Z"/></g>
<g><path style="opacity:0.231" fill="#403c2b" d="M 902.5,379.5 C 896.15,393.572 889.817,407.572 883.5,421.5C 888.028,409.434 892.861,397.434 898,385.5C 898.814,382.823 900.314,380.823 902.5,379.5 Z"/></g>
<g><path style="opacity:1" fill="#ecb51a" d="M 677.5,319.5 C 678.999,324.141 680.999,328.641 683.5,333C 681.058,337.052 680.891,341.219 683,345.5C 684.055,363.604 683.555,381.604 681.5,399.5C 686.833,400.167 686.833,400.833 681.5,401.5C 681.813,404.247 681.48,406.914 680.5,409.5C 679.833,408.833 679.167,408.167 678.5,407.5C 677.334,409.365 677.667,411.032 679.5,412.5C 678.645,413.293 677.811,412.96 677,411.5C 675.697,418.177 674.197,424.843 672.5,431.5C 670.829,433.627 669.163,435.627 667.5,437.5C 682.178,399.154 685.511,359.82 677.5,319.5 Z"/></g>
<g><path style="opacity:1" fill="#fdfdfc" d="M 432.5,403.5 C 433.228,405.512 434.062,407.512 435,409.5C 446.147,421.333 459.647,429.5 475.5,434C 477.286,434.785 478.786,435.951 480,437.5C 480.667,444.5 480.667,451.5 480,458.5C 478.815,466.687 474.315,472.187 466.5,475C 453.549,477.95 445.382,473.116 442,460.5C 440.267,458.398 438.267,458.065 436,459.5C 434.967,464.894 435.967,469.894 439,474.5C 454.984,487.215 470.151,486.215 484.5,471.5C 488.435,475.93 493.102,479.43 498.5,482C 504.749,483.536 511.083,483.87 517.5,483C 529.738,479.78 535.238,471.946 534,459.5C 532.612,458.446 531.112,458.28 529.5,459C 527.929,462.071 526.429,465.238 525,468.5C 519.245,475.037 512.078,477.203 503.5,475C 495.114,472.614 490.28,467.114 489,458.5C 488.333,451.167 488.333,443.833 489,436.5C 494.862,434.88 500.696,433.047 506.5,431C 520.687,425.585 531.687,416.418 539.5,403.5C 543.011,404.644 546.344,406.311 549.5,408.5C 558.072,418.311 563.406,429.644 565.5,442.5C 565.5,449.5 565.5,456.5 565.5,463.5C 563.246,477.674 556.579,489.34 545.5,498.5C 532.313,508.427 517.647,515.093 501.5,518.5C 467.675,523.082 439.342,512.749 416.5,487.5C 403.555,470.579 400.221,451.912 406.5,431.5C 411.769,418.901 420.436,409.568 432.5,403.5 Z"/></g>
<g><path style="opacity:1" fill="#faf0a4" d="M 565.5,442.5 C 568.101,449.493 568.101,456.493 565.5,463.5C 565.5,456.5 565.5,449.5 565.5,442.5 Z"/></g>
<g><path style="opacity:0.243" fill="#403d2b" d="M 883.5,422.5 C 877.329,436.838 870.662,450.838 863.5,464.5C 862.957,464.44 862.624,464.107 862.5,463.5C 868.213,452.741 873.38,441.741 878,430.5C 879.139,427.177 880.973,424.51 883.5,422.5 Z"/></g>
<g><path style="opacity:0.251" fill="#453f2f" d="M 854.5,483.5 C 848.738,494.695 842.738,505.695 836.5,516.5C 841.361,505.775 846.528,495.108 852,484.5C 852.671,483.748 853.504,483.414 854.5,483.5 Z"/></g>
<g><path style="opacity:1" fill="#f4d527" d="M 405.5,521.5 C 409.941,523.107 414.608,523.774 419.5,523.5C 419.33,524.822 419.663,525.989 420.5,527C 451.95,536.294 483.95,538.961 516.5,535C 515.698,532.808 515.698,530.308 516.5,527.5C 517.732,528.145 519.065,528.311 520.5,528C 520.167,528.333 519.833,528.667 519.5,529C 521,529.833 522.167,531 523,532.5C 533.452,531.251 543.785,528.918 554,525.5C 554.765,525.57 555.265,525.903 555.5,526.5C 509.243,542.33 462.91,542.497 416.5,527C 412.462,525.648 408.795,523.814 405.5,521.5 Z"/></g>
<g><path style="opacity:1" fill="#efc01e" d="M 423.5,541.5 C 461.358,551.318 499.358,551.984 537.5,543.5C 536.77,545.045 535.437,545.878 533.5,546C 533.833,546.333 534.167,546.667 534.5,547C 519.481,549.001 503.647,550.501 487,551.5C 469.441,551.056 452.108,549.056 435,545.5C 430.938,544.426 427.105,543.092 423.5,541.5 Z"/></g>
<g><path style="opacity:1" fill="#e6bd38" d="M 298.5,555.5 C 307.476,557.314 316.476,559.147 325.5,561C 331.016,561.173 336.349,561.673 341.5,562.5C 326.428,563.778 312.095,561.445 298.5,555.5 Z"/></g>
<g><path style="opacity:1" fill="#bba842" d="M 316.5,571.5 C 321.353,571.813 326.02,572.479 330.5,573.5C 326.818,573.665 323.152,573.499 319.5,573C 318.263,572.768 317.263,572.268 316.5,571.5 Z"/></g>
<g><path style="opacity:0.996" fill="#050403" d="M 770.5,599.5 C 771.801,600.64 772.968,601.973 774,603.5C 774.388,602.572 775.055,601.905 776,601.5C 777.274,602.535 778.44,603.702 779.5,605C 777.963,606.11 777.297,607.61 777.5,609.5C 765.895,625.436 753.562,640.769 740.5,655.5C 736.566,657.598 733.4,660.598 731,664.5C 730.833,666.833 730.667,669.167 730.5,671.5C 735.353,708.972 739.52,746.305 743,783.5C 743.383,784.056 743.883,784.389 744.5,784.5C 744.5,786.167 744.5,787.833 744.5,789.5C 743.861,790.097 743.528,790.93 743.5,792C 747.719,836.471 750.719,880.304 752.5,923.5C 788.168,923.333 823.835,923.5 859.5,924C 862.475,928.295 862.142,932.129 858.5,935.5C 743.001,934.5 627.335,934.167 511.5,934.5C 368.167,934.5 224.833,934.5 81.5,934.5C 80.8826,934.389 80.3826,934.056 80,933.5C 78.9963,930.007 79.4963,926.841 81.5,924C 97.4965,923.5 113.497,923.333 129.5,923.5C 119.727,877.709 118.893,831.709 127,785.5C 134.224,738.932 146.891,693.932 165,650.5C 168.274,643.614 171.774,636.947 175.5,630.5C 176.822,630.33 177.989,630.663 179,631.5C 179.948,635.168 180.781,638.835 181.5,642.5C 172.77,661.63 165.437,681.296 159.5,701.5C 140.203,759.18 131.703,818.513 134,879.5C 135.545,891.796 138.045,903.796 141.5,915.5C 141.294,918.495 141.96,921.162 143.5,923.5C 170.328,924.498 197.328,924.831 224.5,924.5C 224.5,923.5 224.5,922.5 224.5,921.5C 226.163,881.135 229.83,840.802 235.5,800.5C 236.468,798.393 236.802,796.059 236.5,793.5C 240.805,768.957 245.139,744.291 249.5,719.5C 255.206,694.828 261.373,670.161 268,645.5C 268.527,642.772 270.194,641.439 273,641.5C 276.592,641.259 278.425,642.926 278.5,646.5C 275.383,655.302 273.049,664.302 271.5,673.5C 261.924,709.604 254.591,746.271 249.5,783.5C 243.087,816.749 239.087,850.416 237.5,884.5C 235.767,897.29 235.1,910.29 235.5,923.5C 235.5,923.833 235.5,924.167 235.5,924.5C 403.999,925.5 572.666,925.833 741.5,925.5C 742.141,915.111 741.474,905.111 739.5,895.5C 737.093,829.946 731.926,764.613 724,699.5C 722.911,690.953 721.411,682.62 719.5,674.5C 719.364,671.65 719.031,668.817 718.5,666C 718.542,664.033 719.042,662.199 720,660.5C 737.829,640.852 754.663,620.518 770.5,599.5 Z"/></g>
<g><path style="opacity:0.145" fill="#2e2a1e" d="M 740.5,655.5 C 738.182,658.652 735.682,661.652 733,664.5C 732.042,666.199 731.542,668.033 731.5,670C 736.614,708.082 740.948,746.249 744.5,784.5C 743.883,784.389 743.383,784.056 743,783.5C 739.52,746.305 735.353,708.972 730.5,671.5C 730.667,669.167 730.833,666.833 731,664.5C 733.4,660.598 736.566,657.598 740.5,655.5 Z"/></g>
<g><path style="opacity:1" fill="#f2d221" d="M 271.5,673.5 C 271.827,678.214 271.493,682.88 270.5,687.5C 268.418,690.823 267.418,694.489 267.5,698.5C 269.191,702.8 269.858,707.133 269.5,711.5C 269.167,712.167 268.833,712.833 268.5,713.5C 267.158,711.995 265.492,711.328 263.5,711.5C 260.047,732.255 256.547,752.922 253,773.5C 252.241,777.138 251.075,780.471 249.5,783.5C 254.591,746.271 261.924,709.604 271.5,673.5 Z"/></g>
<g><path style="opacity:1" fill="#f2db29" d="M 719.5,674.5 C 721.411,682.62 722.911,690.953 724,699.5C 731.926,764.613 737.093,829.946 739.5,895.5C 739.5,897.167 739.5,898.833 739.5,900.5C 739.5,906.833 739.5,913.167 739.5,919.5C 737.986,899.02 737.153,878.354 737,857.5C 732.699,796.386 726.866,735.386 719.5,674.5 Z"/></g>
<g><path style="opacity:1" fill="#f1da2a" d="M 249.5,719.5 C 245.139,744.291 240.805,768.957 236.5,793.5C 235.84,792.036 235.507,790.369 235.5,788.5C 238.403,774.946 240.737,761.279 242.5,747.5C 244.418,737.929 246.751,728.596 249.5,719.5 Z"/></g>
<g><path style="opacity:1" fill="#f0d625" d="M 159.5,701.5 C 159.247,712.195 156.747,722.195 152,731.5C 149.461,743.529 146.794,755.529 144,767.5C 136.468,806.361 133.801,845.694 136,885.5C 138.798,895.324 140.632,905.324 141.5,915.5C 138.045,903.796 135.545,891.796 134,879.5C 131.703,818.513 140.203,759.18 159.5,701.5 Z"/></g>
<g><path style="opacity:0.333" fill="#332f26" d="M 744.5,789.5 C 749.491,833.966 752.157,878.633 752.5,923.5C 750.719,880.304 747.719,836.471 743.5,792C 743.528,790.93 743.861,790.097 744.5,789.5 Z"/></g>
<g><path style="opacity:1" fill="#f2d41e" d="M 235.5,800.5 C 229.83,840.802 226.163,881.135 224.5,921.5C 224.167,921.5 223.833,921.5 223.5,921.5C 223.333,910.162 223.5,898.828 224,887.5C 225.296,882.208 225.129,876.874 223.5,871.5C 228.295,848.714 231.795,824.714 234,799.5C 235.087,797.068 235.587,797.402 235.5,800.5 Z"/></g>
<g><path style="opacity:1" fill="#efd82d" d="M 249.5,783.5 C 249.02,789.658 249.687,795.658 251.5,801.5C 251.167,802.167 250.833,802.833 250.5,803.5C 249.757,802.092 248.923,800.759 248,799.5C 245.142,819.834 242.476,840.167 240,860.5C 239.667,868.833 239.333,877.167 239,885.5C 238.617,884.944 238.117,884.611 237.5,884.5C 239.087,850.416 243.087,816.749 249.5,783.5 Z"/></g>
<g><path style="opacity:1" fill="#fedc0c" d="M 237.5,884.5 C 237.5,897.167 237.5,909.833 237.5,922.5C 404.833,922.5 572.167,922.5 739.5,922.5C 571.667,923.5 403.667,923.833 235.5,923.5C 235.1,910.29 235.767,897.29 237.5,884.5 Z"/></g>
<g><path style="opacity:1" fill="#e3d065" d="M 223.5,921.5 C 223.833,921.5 224.167,921.5 224.5,921.5C 224.5,922.5 224.5,923.5 224.5,924.5C 197.328,924.831 170.328,924.498 143.5,923.5C 170.521,924.158 197.188,923.491 223.5,921.5 Z"/></g>
<g><path style="opacity:1" fill="#e5d166" d="M 739.5,900.5 C 740.492,908.316 740.826,916.316 740.5,924.5C 572.167,924.5 403.833,924.5 235.5,924.5C 235.5,924.167 235.5,923.833 235.5,923.5C 403.667,923.833 571.667,923.5 739.5,922.5C 739.5,921.5 739.5,920.5 739.5,919.5C 739.5,913.167 739.5,906.833 739.5,900.5 Z"/></g>
<g><path style="opacity:1" fill="#1a0600" d="M 739.5,895.5 C 741.474,905.111 742.141,915.111 741.5,925.5C 572.666,925.833 403.999,925.5 235.5,924.5C 403.833,924.5 572.167,924.5 740.5,924.5C 740.826,916.316 740.492,908.316 739.5,900.5C 739.5,898.833 739.5,897.167 739.5,895.5 Z"/></g>
<g><path style="opacity:0.722" fill="#2e2b1e" d="M 81.5,934.5 C 224.833,934.5 368.167,934.5 511.5,934.5C 626.5,935.167 741.5,935.833 856.5,936.5C 598.833,936.667 341.166,936.5 83.5,936C 82.5842,935.722 81.9175,935.222 81.5,934.5 Z"/></g>
<g><path style="opacity:0.847" fill="#444340" d="M 511.5,934.5 C 627.335,934.167 743.001,934.5 858.5,935.5C 857.833,935.833 857.167,936.167 856.5,936.5C 741.5,935.833 626.5,935.167 511.5,934.5 Z"/></g>
</svg>
